<?xml version="1.0" encoding="UTF-8"?>
<svg id="Layer_1" data-name="Layer 1" xmlns="http://www.w3.org/2000/svg" viewBox="0 0 76.71 66.42">
  <defs>
    <style>
      .cls-1 {
        fill: #d4e2e6;
      }

      .cls-2 {
        fill: #097d45;
      }

      .cls-3 {
        fill: #14975a;
      }

      .cls-4 {
        fill: #17b76c;
      }

      .cls-5 {
        fill: #f0f5f6;
      }

      .cls-6 {
        fill: #b8e7d1;
      }

      .cls-7 {
        fill: #14985a;
      }

      .cls-8 {
        fill: #d7ae45;
      }
    </style>
  </defs>
  <g>
    <path class="cls-3" d="M28.97,0c14.91-.09,28.47,12.23,29.25,27.21,1.35,26.11-29.18,41.29-48.76,23.36C-10.16,32.61,2.87.16,28.97,0ZM28.85,3.12C8.55,3.33-3.83,25.83,7.02,43.08s34.72,16.13,44.58-.67C61.85,24.95,49.04,2.91,28.85,3.12Z"/>
    <path class="cls-3" d="M27.67,20.81v16.77l-9.07-.39c-.12-.14-.47-2.96-.51-3.38-.25-2.97-.25-6.25,0-9.22.04-.43.39-3.24.51-3.38l9.07-.39Z"/>
    <path class="cls-3" d="M30.55,20.81l9.07.39c.12.14.47,2.96.51,3.38.35,4.14.21,8.51-.51,12.61l-9.07.39v-16.77Z"/>
    <path class="cls-3" d="M51.26,21.54c1.62,4.98,1.62,10.33,0,15.31l-8.73.25c.81-5.24.81-10.57,0-15.81l8.73.25Z"/>
    <path class="cls-3" d="M15.69,21.29l-.6,5.45c-.1,3.47.09,6.93.6,10.36l-8.73-.25c-1.63-4.97-1.63-10.34,0-15.31l8.73-.25Z"/>
    <path class="cls-3" d="M30.55,40.46l8.51-.3c-1.32,4.66-3.55,10.42-8.51,12.16v-11.86Z"/>
    <path class="cls-3" d="M27.67,40.46v11.86c-3.9-1.19-6.31-5.61-7.58-9.25-.22-.62-.78-2.21-.81-2.79-.01-.25,0-.15.18-.18.56-.08,1.05.11,1.56.13,2.22.07,4.44.06,6.65.23Z"/>
    <path class="cls-3" d="M30.55,17.94V6.08c3.87,1.17,6.28,5.56,7.55,9.16.16.46.84,2.43.83,2.76,0,.58-1.36.18-1.73.17-2.22-.07-4.43-.08-6.65-.23Z"/>
    <path class="cls-3" d="M27.55,6.08v11.86l-8.39.3c.72-2.69,1.76-5.51,3.31-7.83,1.2-1.82,2.91-3.75,5.08-4.32Z"/>
    <path class="cls-3" d="M41.94,18.4c-1.01-4.01-2.56-7.93-5.05-11.24,5.03,1.64,9.56,5.42,12.27,9.95.13.22.81,1.37.79,1.49-.01.06-.19.2-.29.18l-7.72-.37Z"/>
    <path class="cls-3" d="M50.07,39.74c.18.17-1.42,2.57-1.63,2.86-2.78,3.93-6.83,7.14-11.43,8.64,2.43-3.35,3.82-7.16,5.02-11.09l8.03-.41Z"/>
    <path class="cls-3" d="M16.28,39.99c.78,3.03,1.89,6.1,3.47,8.81.19.32,1.67,2.32,1.58,2.43-5.08-1.85-9.48-5.31-12.27-9.95-.19-.31-.75-1.21-.79-1.49-.03-.2,0-.19.18-.18l7.83.38Z"/>
    <path class="cls-3" d="M16.28,18.4l-7.83.38c-.18.01-.21.02-.18-.18.04-.28.6-1.18.79-1.49,2.72-4.52,6.96-7.99,11.85-9.95l.12.36c-2.44,3.19-3.73,7.04-4.75,10.88Z"/>
  </g>
  <g>
    <path class="cls-3" d="M63.1,10.25c4.52.37,9.18,1.12,13.53,1.97.12,15.05.09,30.84.01,45.88h-13.55c-.08,0-.19-.02-.19-.07-.06-3.44-.06-7,0-10.44l.19-.12c.48-.02.96-.06,1.46-.1l-.19-.09v-23.89c-.44.03-.88.05-1.27-.19-.02.09-.05.08-.1,0l-.19-.07c.03-4.26.06-8.52.1-12.78l.2-.12Z"/>
    <path class="cls-4" d="M63.1,10.25l-.1,12.96c-.48.27-.98.27-1.46,0l.19.09v23.95l-.19.12c.3-.28,1.47-.39,1.56.1v10.62h-6.04l-.19-.09.1-34.71h-7.09c-.22,0-.38-.03-.32-.28v-14.72c4.52.58,9.04,1.27,13.55,1.95Z"/>
    <path class="cls-1" d="M49.55,23.01s.15.1.33.1c2.42.03,4.85-.03,7.27,0l-.1,34.99h-10.62l-.19-.07v-8.97l.19-.12c.76-.02,1.54-.06,2.34-.1l-.19-.09v-2.63c-.69,0-1.38,0-2.05-.2-.78.24-1.56.24-2.34,0,.07-.24.29-.34.66-.3.44-.04,1.29-.06,1.58.21-.08,0-.19-.02-.19-.07-.08-.83-.1-2.72,0-3.52l.19-.11c-.29.27-1.14.24-1.58.21-.37.04-.59-.06-.66-.3.78-.24,1.56-.24,2.34,0,.75-.24,1.49-.24,2.24,0-.08,0-.19-.03-.19-.09-.07-.51-.07-2.19,0-2.7l.19-.14c-.75.24-1.49.24-2.24,0-.78.24-1.56.24-2.34,0,.07-.24.29-.34.66-.3.44-.04,1.29-.06,1.58.21-.08,0-.19-.02-.19-.07-.08-.83-.1-2.72,0-3.52l.19-.11c-.29.27-1.14.24-1.58.21-.37.04-.59-.06-.66-.3.78-.24,1.56-.24,2.34,0,.67-.21,1.36-.21,2.05-.2v-2.58s.19-.14.19-.14c-.8-.04-1.58-.07-2.34-.1l-.19-.07v-8.88l.19-.12c1,0,2.08-.11,3.12-.1Z"/>
    <path class="cls-5" d="M46.44,23.11v9.06l-.11.19-1.95.02.03,2.69-.21.12c.69.22,1.52.04,2.24.1v3.7c-.72.06-1.55-.13-2.24.1.07,0,.18.03.19.09.06.19.03,2.36,0,2.7l-.19.14c.69.22,1.52.04,2.24.1v3.7c-.72.06-1.55-.13-2.24.1l.21.12c-.03.89-.03,1.79-.01,2.67.63.06,1.27.07,1.9.04l.14.19v9.16h-9.16l-1.41-.07c-.02-2.7,0-5.41.05-8.11,0-1.08-.07-2.15-.2-3.23-.08-4.83-.14-9.69.1-14.51-.02-2.94.02-5.88,0-8.82l.1-.29c3.4-.06,6.8-.07,10.2-.05.17,0,.31.1.33.1Z"/>
    <path class="cls-4" d="M35.81,32.17c.04,5.89.09,11.83.1,17.74-.03.09-.06.08-.1,0-.27-1-.27-2.02,0-3.02,0,.08-.03.19-.09.19-.3.02-2.57.05-2.7,0-.07-.03-.11-.12-.14-.19.05,0,.1,0,.13.03.12.08.09,2.5.06,2.85l-.19.14c0-.08.03-.18.09-.19.37-.08,2.25-.04,2.7,0l.14.19c.09,2.73.07,5.46,0,8.19h-9.06v-25.92h9.06Z"/>
    <path class="cls-6" d="M35.91,49.91c0,2.69,0,5.39,0,8.09l1.36.1h-1.46c-.01-2.73.01-5.46,0-8.19h.1Z"/>
    <rect class="cls-2" x="69.24" y="23.21" width="3.02" height="28.36"/>
    <path class="cls-3" d="M63,23.21s.06,0,.1,0l.19.09v23.88s1.13,0,1.13,0l.14.19c-.39.16-1.02.12-1.46.1-.06,0-.19-.09-.34-.1-.4-.03-.82.02-1.22,0v-24.17c.49,0,.98,0,1.46,0Z"/>
    <path class="cls-2" d="M63.1,23.21c.49,0,.98,0,1.46,0v24.17s-1.46,0-1.46,0v-24.17Z"/>
    <path class="cls-4" d="M46.44,32.17c.75,0,1.62-.08,2.34.1v.13c-.7.05-1.4.08-2.14.09-.07.85-.03,1.71.06,2.56l-.17.14c-.78,0-1.56,0-2.34,0,.09-.49-.14-2.67.04-2.93.11-.16,1.85-.09,2.2-.09Z"/>
    <path class="cls-4" d="M46.53,45.92l.17.14c-.1.85-.13,1.71-.06,2.56.67.05,1.35.06,2.03.02l.1.2c-.72.17-1.59.1-2.34.1-.34,0-2.08.07-2.2-.09-.18-.26.05-2.44-.04-2.93.78,0,1.56,0,2.34,0Z"/>
    <path class="cls-7" d="M48.77,32.27v2.92c-.75,0-1.5,0-2.24,0-.11-.39-.19-2.65-.05-2.83.15-.21,1.92-.03,2.3-.09Z"/>
    <path class="cls-3" d="M46.53,39.09c.75,0,1.5,0,2.24,0v2.92c-.75,0-1.5,0-2.24,0-.29-.37-.39-.85-.32-1.46-.08-.61.03-1.1.32-1.46Z"/>
    <path class="cls-7" d="M46.53,45.92c.75,0,1.5,0,2.24,0v2.92c-.37-.06-2.15.12-2.3-.09-.13-.19-.06-2.45.05-2.83Z"/>
    <path class="cls-4" d="M46.53,39.09c-.16.91-.16,2.01,0,2.92-.78,0-1.56,0-2.34,0v-2.92c.78,0,1.56,0,2.34,0Z"/>
    <path class="cls-7" d="M35.81,49.91h-2.92v-3.02h2.92c0,1.01,0,2.02,0,3.02Z"/>
    <rect class="cls-7" x="32.89" y="39.97" width="2.92" height="2.92"/>
  </g>
  <path class="cls-8" d="M54.05,56.93c.1.1.01.56-.28.65-.54.17-2.43.11-3.19.2-12.42,1.39-24.35,5.04-36.25,8.62-1.17.19-1.29-.99-1.85-1.7-.91-1.14-2.67-2.01-3.99-2.61-.67-.3-4.23-1.44-4.4-1.61-.25-.26.08-.29.22-.38,1.21-.78,4.03-1.86,5.44-1.64.69.11,2.39,1.26,3.03,1.71.95.67,2.88,2.68,3.91,2.66.96-.02,3.53-1.11,4.67-1.42,10.99-3,20.24-3.91,31.59-4.3.25,0,1.03-.23,1.09-.18Z"/>
</svg>