<svg width="200" height="47" viewBox="0 0 200 47" fill="none" xmlns="http://www.w3.org/2000/svg">
<path d="M85.8486 40.9605L86.7708 36.7717H87.8325L89.105 39.6263H88.5453L91.01 36.7717H92.1308L91.2147 40.9605H90.0089L90.555 38.4226H90.7734L88.9473 40.5463H88.3739L87.3775 38.4106L87.6019 38.4286L87.0483 40.9605H85.8486Z" fill="black"/>
<path d="M91.585 40.9605L94.5456 36.7717H95.8317L96.9526 40.9605H95.6467L94.8231 37.3345H95.3312L92.9697 40.9605H91.585ZM92.8772 40.1411L93.405 39.2736H95.6527L95.8044 40.1411H92.8772Z" fill="black"/>
<path d="M96.5898 40.9605L99.1349 38.4467L98.9771 39.1295L97.606 36.7717H98.9969L99.8735 38.3401L99.3063 38.3461L100.843 36.7717H102.312L99.9327 39.1415L99.9797 38.4707L101.471 40.9605H100.052L99.1364 39.3021L99.7233 39.3141L98.1536 40.9605H96.5914H96.5898Z" fill="black"/>
<path d="M101.792 40.9605L102.714 36.7717H104.02L103.096 40.9605H101.792Z" fill="black"/>
<path d="M104.026 40.9605L104.949 36.7717H106.01L107.283 39.6263H106.723L109.189 36.7717H110.31L109.394 40.9605H108.187L108.734 38.4226H108.951L107.125 40.5463H106.552L105.557 38.4106L105.781 38.4286L105.228 40.9605H104.028H104.026Z" fill="black"/>
<path d="M112.518 41.0446C112.057 41.0446 111.672 40.9635 111.361 40.803C111.052 40.6409 110.832 40.4142 110.703 40.1231C110.574 39.8319 110.554 39.4912 110.647 39.0995L111.153 36.7717H112.459L111.951 39.0755C111.881 39.4102 111.91 39.6593 112.041 39.8199C112.17 39.982 112.382 40.0615 112.676 40.0615C112.949 40.0615 113.166 39.9865 113.328 39.8349C113.492 39.6833 113.612 39.4297 113.691 39.0755L114.199 36.7717H115.485L114.957 39.1475C114.825 39.7734 114.555 40.2462 114.146 40.5658C113.738 40.8855 113.195 41.0446 112.517 41.0446H112.518Z" fill="black"/>
<path d="M115.406 40.9605L116.328 36.7717H117.39L118.663 39.6263H118.103L120.568 36.7717H121.688L120.772 40.9605H119.567L120.113 38.4226H120.331L118.505 40.5463H117.932L116.935 38.4106L117.16 38.4286L116.606 40.9605H115.406Z" fill="black"/>
<path d="M123.614 40.9605L124.536 36.7717H126.488C127.091 36.7717 127.553 36.8888 127.876 37.1244C128.199 37.3601 128.362 37.6902 128.362 38.118C128.362 38.4692 128.268 38.7768 128.081 39.0395C127.894 39.3021 127.631 39.5062 127.289 39.6503C126.948 39.7944 126.545 39.8664 126.079 39.8664H124.582L125.281 39.3396L124.919 40.962H123.613L123.614 40.9605ZM125.249 39.4822L124.781 38.9254H126.14C126.425 38.9254 126.648 38.8654 126.805 38.7453C126.963 38.6253 127.044 38.4497 127.044 38.2185C127.044 38.0384 126.98 37.9079 126.852 37.8268C126.725 37.7458 126.548 37.7037 126.319 37.7037H125.066L125.765 37.1409L125.251 39.4807L125.249 39.4822Z" fill="black"/>
<path d="M128.407 40.9605L129.329 36.7717H131.301C131.89 36.7717 132.348 36.8888 132.672 37.1244C132.998 37.3601 133.161 37.6872 133.161 38.106C133.161 38.4572 133.067 38.7633 132.88 39.0245C132.693 39.2856 132.43 39.4882 132.088 39.6323C131.747 39.7764 131.342 39.8484 130.872 39.8484H129.381L130.074 39.3396L129.712 40.962H128.406L128.407 40.9605ZM130.042 39.4822L129.581 38.9254H130.939C131.224 38.9254 131.445 38.8654 131.601 38.7453C131.758 38.6253 131.837 38.4497 131.837 38.2185C131.837 38.0384 131.773 37.9079 131.648 37.8268C131.524 37.7458 131.344 37.7037 131.112 37.7037H129.859L130.558 37.1409L130.044 39.4807L130.042 39.4822ZM131.309 40.9605L130.359 39.4342H131.711L132.674 40.9605H131.309Z" fill="black"/>
<path d="M135.779 41.0447C135.304 41.0447 134.896 40.9666 134.556 40.8106C134.216 40.6545 133.951 40.4384 133.764 40.1607C133.578 39.883 133.484 39.5634 133.484 39.2002C133.484 38.837 133.554 38.4963 133.695 38.1916C133.836 37.8869 134.033 37.6213 134.288 37.3962C134.543 37.171 134.846 36.9954 135.198 36.8724C135.55 36.7493 135.939 36.6863 136.366 36.6863C136.836 36.6863 137.244 36.7643 137.588 36.9189C137.932 37.075 138.198 37.2926 138.383 37.5718C138.568 37.8509 138.66 38.1706 138.66 38.5293C138.66 38.888 138.591 39.2317 138.453 39.5379C138.315 39.8425 138.116 40.1082 137.86 40.3333C137.603 40.5584 137.297 40.734 136.943 40.8571C136.59 40.9802 136.202 41.0432 135.78 41.0432L135.779 41.0447ZM135.891 40.0631C136.118 40.0631 136.323 40.0256 136.501 39.9491C136.678 39.874 136.831 39.7675 136.959 39.6324C137.086 39.4973 137.182 39.3397 137.245 39.1626C137.309 38.9856 137.341 38.7979 137.341 38.6028C137.341 38.4197 137.298 38.2561 137.212 38.1151C137.125 37.974 137.001 37.8629 136.839 37.7864C136.677 37.7083 136.481 37.6693 136.252 37.6693C136.023 37.6693 135.826 37.7068 135.648 37.7834C135.471 37.8584 135.318 37.965 135.19 38.1001C135.063 38.2351 134.966 38.3927 134.9 38.5698C134.834 38.7469 134.8 38.9345 134.8 39.1296C134.8 39.3127 134.843 39.4763 134.929 39.6174C135.016 39.7585 135.139 39.868 135.298 39.9461C135.459 40.0241 135.654 40.0631 135.888 40.0631H135.891Z" fill="black"/>
<path d="M139.773 40.9605L140.486 37.7112H139.074L139.285 36.7717H143.42L143.209 37.7112H141.791L141.079 40.9605H139.773Z" fill="black"/>
<path d="M144.475 40.039H146.894L146.69 40.9605H142.984L143.907 36.7717H147.519L147.316 37.6932H144.996L144.475 40.039ZM144.745 38.3926H146.888L146.697 39.2721H144.554L144.745 38.3926Z" fill="black"/>
<path d="M149.94 41.0447C149.47 41.0447 149.059 40.9666 148.707 40.8106C148.355 40.6545 148.085 40.4384 147.895 40.1607C147.706 39.883 147.612 39.5634 147.612 39.2002C147.612 38.837 147.682 38.5023 147.823 38.1946C147.964 37.8869 148.161 37.6213 148.416 37.3962C148.67 37.171 148.974 36.9954 149.329 36.8724C149.682 36.7493 150.075 36.6863 150.506 36.6863C150.936 36.6863 151.31 36.7538 151.64 36.8889C151.969 37.024 152.217 37.2206 152.379 37.4757L151.443 38.1586C151.332 37.9995 151.193 37.8779 151.024 37.7939C150.856 37.7098 150.654 37.6678 150.421 37.6678C150.187 37.6678 149.993 37.7038 149.811 37.7759C149.629 37.8479 149.471 37.95 149.339 38.0805C149.207 38.2126 149.106 38.3672 149.036 38.5443C148.965 38.7214 148.93 38.915 148.93 39.1221C148.93 39.3097 148.975 39.4748 149.065 39.6159C149.154 39.757 149.285 39.8665 149.455 39.9446C149.624 40.0226 149.825 40.0616 150.058 40.0616C150.265 40.0616 150.463 40.0226 150.654 39.9446C150.845 39.8665 151.023 39.7435 151.185 39.5769L151.957 40.2658C151.698 40.5494 151.399 40.749 151.061 40.8676C150.723 40.9862 150.349 41.0447 149.94 41.0447Z" fill="black"/>
<path d="M153.198 40.9605L153.911 37.7112H152.499L152.709 36.7717H156.844L156.633 37.7112H155.215L154.504 40.9605H153.198Z" fill="black"/>
<path d="M156.409 40.9605L157.331 36.7717H158.637L157.715 40.9605H156.409Z" fill="black"/>
<path d="M161.136 41.0447C160.661 41.0447 160.253 40.9666 159.912 40.8106C159.571 40.6545 159.307 40.4384 159.12 40.1607C158.934 39.883 158.841 39.5634 158.841 39.2002C158.841 38.837 158.911 38.4963 159.052 38.1916C159.192 37.8869 159.39 37.6213 159.645 37.3962C159.9 37.171 160.203 36.9954 160.555 36.8724C160.907 36.7493 161.295 36.6863 161.722 36.6863C162.192 36.6863 162.6 36.7643 162.945 36.9189C163.29 37.075 163.555 37.2926 163.74 37.5718C163.925 37.8509 164.018 38.1706 164.018 38.5293C164.018 38.888 163.948 39.2317 163.81 39.5379C163.67 39.8425 163.473 40.1082 163.217 40.3333C162.959 40.5584 162.654 40.734 162.299 40.8571C161.946 40.9802 161.558 41.0432 161.136 41.0432V41.0447ZM161.248 40.0631C161.476 40.0631 161.679 40.0256 161.858 39.9491C162.035 39.874 162.189 39.7675 162.316 39.6324C162.443 39.4973 162.539 39.3397 162.603 39.1626C162.666 38.9856 162.698 38.7979 162.698 38.6028C162.698 38.4197 162.656 38.2561 162.569 38.1151C162.484 37.974 162.36 37.8629 162.198 37.7864C162.034 37.7083 161.84 37.6693 161.611 37.6693C161.382 37.6693 161.186 37.7068 161.007 37.7834C160.83 37.8584 160.677 37.965 160.549 38.1001C160.422 38.2351 160.325 38.3927 160.258 38.5698C160.193 38.7469 160.159 38.9345 160.159 39.1296C160.159 39.3127 160.202 39.4763 160.288 39.6174C160.373 39.7585 160.496 39.868 160.657 39.9461C160.818 40.0241 161.013 40.0631 161.247 40.0631H161.248Z" fill="black"/>
<path d="M164.221 40.9605L165.143 36.7717H166.219L168.084 39.5663L167.643 39.5603L168.25 36.7717H169.528L168.606 40.9605H167.532L165.673 38.166L166.114 38.172L165.501 40.9605H164.223H164.221Z" fill="black"/>
<path d="M198.963 0.842041L189.812 46.1566H174.366L181.199 12.3684H173.321L175.675 3.53903C182.569 3.53903 183.677 0.842041 183.78 0.842041C188.842 0.842041 193.903 0.842041 198.963 0.842041Z" fill="url(#paint0_linear_189_661)"/>
<path d="M31.4731 27.9079C31.3851 29.5588 30.78 30.9396 29.6561 32.0517C28.5322 33.1638 26.8775 33.9983 24.6919 34.5536C22.5064 35.1089 19.7444 35.3881 16.4092 35.3881C13.8627 35.3881 11.58 35.253 9.56129 34.9843C7.54256 34.7157 5.8211 34.2549 4.39844 33.6036C2.97577 32.9522 1.88678 32.0622 1.13298 30.9321C0.377659 29.8035 0 28.3777 0 26.6577C0 24.9378 0.377659 23.5 1.13298 22.3443C1.88829 21.1887 2.97729 20.2687 4.39844 19.5813C5.8211 18.8954 7.54105 18.4047 9.56129 18.109C11.58 17.8133 13.8627 17.6663 16.4092 17.6663C19.7444 17.6663 22.5109 17.9664 24.7056 18.5653C26.9002 19.1656 28.5595 20.0466 29.6834 21.2112C30.8073 22.3759 31.4124 23.7911 31.5004 25.4586H24.6525C24.4417 24.9033 24.0549 24.4125 23.4937 23.9863C22.931 23.5615 22.0893 23.2268 20.9654 22.9837C19.8415 22.7406 18.3218 22.619 16.4092 22.619C14.1615 22.619 12.3353 22.7541 10.9309 23.0227C9.52641 23.2929 8.4996 23.7221 7.84894 24.3119C7.19979 24.9033 6.87521 25.6852 6.87521 26.6577C6.87521 27.5432 7.19979 28.2651 7.84894 28.8204C8.49808 29.3772 9.52489 29.784 10.9309 30.0451C12.3353 30.3063 14.1615 30.4353 16.4092 30.4353C18.3233 30.4353 19.837 30.3228 20.9532 30.0961C22.068 29.871 22.9068 29.5618 23.4679 29.1701C24.0291 28.7799 24.4159 28.3582 24.6267 27.9064H31.4746L31.4731 27.9079Z" fill="black"/>
<path d="M41.5078 18.187V29.9145H56.8629V34.8657H34.9238V18.187H41.5078Z" fill="black"/>
<path d="M60.1538 18.187H66.7378V34.8657H60.1538V18.187Z" fill="black"/>
<path d="M108.749 18.1841V34.8673H102.163V26.3171L93.7305 34.8673H85.8346L77.4017 26.3501V34.8673H70.8223V18.1841H77.4017L89.7583 30.8646L102.163 18.1841H108.749Z" fill="black"/>
<path d="M129.472 18.1841H122.147L110.851 34.8673H118.095L119.734 32.3399H131.977L133.63 34.8673H140.874L129.472 18.1841ZM122.269 28.4302L125.83 22.9447L129.419 28.4302H122.269Z" fill="black"/>
<path d="M170.374 34.8673H161.948L156.136 29.9011L150.357 34.8673H141.93L152.077 26.4492L142.193 18.1841H150.619L156.149 22.9987L161.679 18.1841H170.112L160.208 26.4627L170.374 34.8673Z" fill="black"/>
<defs>
<linearGradient id="paint0_linear_189_661" x1="186.142" y1="0.842041" x2="186.142" y2="46.1566" gradientUnits="userSpaceOnUse">
<stop stop-color="#14975A"/>
<stop offset="1" stop-color="#00301A"/>
</linearGradient>
</defs>
</svg>
