<svg width="211" height="50" viewBox="0 0 211 50" fill="none" xmlns="http://www.w3.org/2000/svg">
<g clip-path="url(#clip0_454_684)">
<path d="M90.5703 43.5753L91.5432 39.1191H92.6633L94.0058 42.1559H93.4153L96.0155 39.1191H97.198L96.2315 43.5753H94.9594L95.5355 40.8754H95.7659L93.8394 43.1347H93.2345L92.1832 40.8627L92.4201 40.8818L91.836 43.5753H90.5703Z" fill="white"/>
<path d="M96.6221 43.5753L99.7455 39.1191H101.102L102.285 43.5753H100.907L100.038 39.7179H100.574L98.083 43.5753H96.6221ZM97.9854 42.7036L98.5422 41.7807H100.914L101.074 42.7036H97.9854Z" fill="white"/>
<path d="M101.902 43.5753L104.587 40.901L104.421 41.6274L102.974 39.1191H104.442L105.367 40.7876L104.768 40.794L106.389 39.1191H107.94L105.429 41.6402L105.479 40.9265L107.052 43.5753H105.555L104.589 41.8111L105.208 41.8238L103.552 43.5753H101.904H101.902Z" fill="white"/>
<path d="M107.391 43.5753L108.363 39.1191H109.741L108.767 43.5753H107.391Z" fill="white"/>
<path d="M109.748 43.5753L110.721 39.1191H111.841L113.184 42.1559H112.593L115.195 39.1191H116.377L115.411 43.5753H114.137L114.715 40.8754H114.944L113.017 43.1347H112.412L111.363 40.8627L111.599 40.8818L111.015 43.5753H109.75H109.748Z" fill="white"/>
<path d="M118.707 43.6647C118.221 43.6647 117.814 43.5785 117.486 43.4077C117.16 43.2352 116.928 42.9942 116.792 42.6844C116.656 42.3747 116.635 42.0122 116.732 41.5955L117.267 39.1191H118.645L118.109 41.57C118.035 41.926 118.065 42.1911 118.203 42.3619C118.339 42.5343 118.563 42.6189 118.873 42.6189C119.161 42.6189 119.39 42.5391 119.561 42.3779C119.734 42.2166 119.861 41.9468 119.944 41.57L120.48 39.1191H121.837L121.28 41.6466C121.141 42.3124 120.856 42.8153 120.424 43.1554C119.993 43.4955 119.421 43.6647 118.705 43.6647H118.707Z" fill="white"/>
<path d="M121.754 43.5753L122.727 39.1191H123.847L125.189 42.1559H124.599L127.199 39.1191H128.382L127.415 43.5753H126.143L126.719 40.8754H126.949L125.023 43.1347H124.418L123.367 40.8627L123.604 40.8818L123.02 43.5753H121.754Z" fill="white"/>
<path d="M130.414 43.5753L131.387 39.1191H133.446C134.081 39.1191 134.569 39.2437 134.91 39.4943C135.251 39.745 135.422 40.0963 135.422 40.5513C135.422 40.9249 135.323 41.2522 135.126 41.5316C134.929 41.8111 134.651 42.0282 134.291 42.1815C133.931 42.3348 133.505 42.4114 133.014 42.4114H131.435L132.172 41.851L131.79 43.5769H130.412L130.414 43.5753ZM132.139 42.0027L131.644 41.4103H133.078C133.379 41.4103 133.614 41.3464 133.78 41.2187C133.947 41.091 134.032 40.9042 134.032 40.6583C134.032 40.4667 133.964 40.3278 133.83 40.2416C133.696 40.1554 133.508 40.1106 133.267 40.1106H131.945L132.683 39.5119L132.14 42.0011L132.139 42.0027Z" fill="white"/>
<path d="M135.469 43.5753L136.442 39.1191H138.522C139.143 39.1191 139.626 39.2437 139.969 39.4943C140.313 39.745 140.484 40.0931 140.484 40.5385C140.484 40.9122 140.385 41.2379 140.188 41.5157C139.991 41.7935 139.713 42.009 139.353 42.1623C138.993 42.3156 138.566 42.3922 138.07 42.3922H136.497L137.228 41.851L136.845 43.5769H135.468L135.469 43.5753ZM137.194 42.0027L136.708 41.4103H138.14C138.441 41.4103 138.674 41.3464 138.839 41.2187C139.004 41.091 139.087 40.9042 139.087 40.6583C139.087 40.4667 139.02 40.3278 138.889 40.2416C138.758 40.1554 138.567 40.1106 138.322 40.1106H137.001L137.738 39.5119L137.196 42.0011L137.194 42.0027ZM138.53 43.5753L137.529 41.9516H138.954L139.971 43.5753H138.53Z" fill="white"/>
<path d="M143.246 43.6647C142.745 43.6647 142.315 43.5817 141.956 43.4156C141.598 43.2496 141.318 43.0196 141.121 42.7243C140.924 42.4289 140.825 42.0888 140.825 41.7024C140.825 41.316 140.899 40.9536 141.048 40.6295C141.196 40.3054 141.404 40.0228 141.673 39.7833C141.942 39.5438 142.262 39.357 142.633 39.2261C143.005 39.0951 143.416 39.0281 143.865 39.0281C144.361 39.0281 144.792 39.1111 145.155 39.2756C145.518 39.4416 145.798 39.6731 145.994 39.9701C146.189 40.2671 146.286 40.6071 146.286 40.9887C146.286 41.3703 146.213 41.736 146.067 42.0617C145.922 42.3858 145.712 42.6684 145.442 42.9079C145.171 43.1474 144.848 43.3342 144.475 43.4651C144.102 43.596 143.693 43.6631 143.248 43.6631L143.246 43.6647ZM143.365 42.6205C143.605 42.6205 143.821 42.5806 144.008 42.4991C144.195 42.4193 144.357 42.306 144.491 42.1623C144.625 42.0186 144.726 41.8509 144.793 41.6625C144.861 41.4741 144.894 41.2745 144.894 41.067C144.894 40.8722 144.849 40.6981 144.758 40.5481C144.667 40.398 144.536 40.2798 144.365 40.1984C144.193 40.1154 143.987 40.0739 143.745 40.0739C143.504 40.0739 143.296 40.1138 143.109 40.1952C142.921 40.275 142.76 40.3884 142.625 40.5321C142.491 40.6758 142.389 40.8434 142.32 41.0318C142.249 41.2202 142.214 41.4198 142.214 41.6274C142.214 41.8222 142.259 41.9962 142.35 42.1463C142.441 42.2964 142.571 42.4129 142.739 42.496C142.909 42.579 143.115 42.6205 143.361 42.6205H143.365Z" fill="white"/>
<path d="M147.461 43.5753L148.213 40.1186H146.724L146.946 39.1191H151.308L151.086 40.1186H149.589L148.839 43.5753H147.461Z" fill="white"/>
<path d="M152.422 42.595H154.974L154.758 43.5753H150.849L151.822 39.1191H155.633L155.419 40.0995H152.97L152.422 42.595ZM152.706 40.8435H154.967L154.766 41.7791H152.505L152.706 40.8435Z" fill="white"/>
<path d="M158.187 43.6647C157.691 43.6647 157.257 43.5817 156.886 43.4156C156.515 43.2496 156.23 43.0196 156.03 42.7243C155.83 42.4289 155.73 42.0888 155.73 41.7024C155.73 41.316 155.804 40.96 155.953 40.6327C156.102 40.3054 156.31 40.0228 156.579 39.7833C156.847 39.5438 157.167 39.357 157.542 39.2261C157.915 39.0951 158.329 39.0281 158.784 39.0281C159.238 39.0281 159.632 39.0999 159.98 39.2436C160.328 39.3873 160.588 39.5965 160.76 39.8679L159.772 40.5944C159.656 40.4251 159.508 40.2958 159.331 40.2064C159.153 40.117 158.94 40.0723 158.694 40.0723C158.447 40.0723 158.243 40.1106 158.051 40.1872C157.859 40.2639 157.692 40.3724 157.553 40.5113C157.414 40.6518 157.307 40.8163 157.233 41.0047C157.158 41.1931 157.121 41.3991 157.121 41.6194C157.121 41.819 157.169 41.9946 157.263 42.1447C157.358 42.2948 157.495 42.4113 157.675 42.4944C157.854 42.5774 158.065 42.6189 158.311 42.6189C158.529 42.6189 158.739 42.5774 158.94 42.4944C159.142 42.4113 159.329 42.2804 159.5 42.1032L160.315 42.836C160.041 43.1378 159.726 43.3501 159.369 43.4763C159.012 43.6024 158.619 43.6647 158.187 43.6647Z" fill="white"/>
<path d="M161.623 43.5753L162.375 40.1186H160.886L161.108 39.1191H165.47L165.248 40.1186H163.752L163.001 43.5753H161.623Z" fill="white"/>
<path d="M165.011 43.5753L165.984 39.1191H167.361L166.388 43.5753H165.011Z" fill="white"/>
<path d="M169.999 43.6647C169.498 43.6647 169.068 43.5817 168.708 43.4156C168.348 43.2496 168.069 43.0196 167.873 42.7243C167.676 42.4289 167.578 42.0888 167.578 41.7024C167.578 41.316 167.652 40.9536 167.801 40.6295C167.948 40.3054 168.157 40.0228 168.426 39.7833C168.695 39.5438 169.015 39.357 169.386 39.2261C169.757 39.0951 170.167 39.0281 170.617 39.0281C171.113 39.0281 171.543 39.1111 171.908 39.2756C172.271 39.4416 172.551 39.6731 172.747 39.9701C172.942 40.2671 173.039 40.6071 173.039 40.9887C173.039 41.3703 172.966 41.736 172.82 42.0617C172.673 42.3858 172.465 42.6684 172.194 42.9079C171.922 43.1474 171.601 43.3342 171.226 43.4651C170.854 43.596 170.444 43.6631 169.999 43.6631V43.6647ZM170.118 42.6205C170.358 42.6205 170.572 42.5806 170.761 42.4991C170.948 42.4193 171.11 42.306 171.244 42.1623C171.378 42.0186 171.479 41.8509 171.546 41.6625C171.614 41.4741 171.647 41.2745 171.647 41.067C171.647 40.8722 171.602 40.6981 171.511 40.5481C171.422 40.398 171.29 40.2798 171.119 40.1984C170.946 40.1154 170.742 40.0739 170.5 40.0739C170.258 40.0739 170.052 40.1138 169.863 40.1952C169.676 40.275 169.514 40.3884 169.38 40.5321C169.245 40.6758 169.143 40.8434 169.073 41.0318C169.004 41.2202 168.969 41.4198 168.969 41.6274C168.969 41.8222 169.013 41.9962 169.105 42.1463C169.194 42.2964 169.324 42.4129 169.493 42.496C169.663 42.579 169.869 42.6205 170.116 42.6205H170.118Z" fill="white"/>
<path d="M173.253 43.5753L174.226 39.1191H175.36L177.328 42.0921L176.863 42.0857L177.503 39.1191H178.852L177.879 43.5753H176.746L174.784 40.6024L175.25 40.6088L174.603 43.5753H173.255H173.253Z" fill="white"/>
<path d="M209.905 0.895752L200.252 49.1027H183.956L191.165 13.1579H182.854L185.337 3.76489C192.609 3.76489 193.779 0.895752 193.888 0.895752C199.228 0.895752 204.567 0.895752 209.905 0.895752Z" fill="url(#paint0_linear_454_684)"/>
<path d="M33.2041 29.6893C33.1113 31.4456 32.4729 32.9145 31.2872 34.0976C30.1015 35.2807 28.3558 36.1685 26.05 36.7592C23.7442 37.35 20.8304 37.6469 17.3117 37.6469C14.6251 37.6469 12.2169 37.5032 10.0872 37.2174C7.9574 36.9316 6.14127 36.4415 4.64035 35.7485C3.13944 35.0556 1.99055 34.1088 1.19529 32.9065C0.39843 31.7059 0 30.1891 0 28.3593C0 26.5296 0.39843 25 1.19529 23.7706C1.99215 22.5412 3.14104 21.5625 4.64035 20.8312C6.14127 20.1016 7.9558 19.5795 10.0872 19.265C12.2169 18.9504 14.6251 18.7939 17.3117 18.7939C20.8304 18.7939 23.749 19.1133 26.0644 19.7503C28.3798 20.389 30.1303 21.3262 31.316 22.5652C32.5017 23.8042 33.1401 25.3098 33.2329 27.0836H26.0084C25.786 26.4929 25.3779 25.9708 24.7859 25.5173C24.1922 25.0655 23.3042 24.7095 22.1185 24.4508C20.9328 24.1921 19.3295 24.0628 17.3117 24.0628C14.9403 24.0628 13.0138 24.2065 11.5321 24.4923C10.0504 24.7797 8.96708 25.2363 8.28063 25.8638C7.59578 26.4929 7.25335 27.3247 7.25335 28.3593C7.25335 29.3014 7.59578 30.0693 8.28063 30.6601C8.96548 31.2524 10.0488 31.6851 11.5321 31.9629C13.0138 32.2407 14.9403 32.3781 17.3117 32.3781C19.3311 32.3781 20.928 32.2583 22.1057 32.0172C23.2818 31.7777 24.1666 31.4488 24.7587 31.0321C25.3507 30.617 25.7588 30.1683 25.9812 29.6877H33.2057L33.2041 29.6893Z" fill="white"/>
<path d="M43.7909 19.3479V31.8239H59.9905V37.0912H36.8447V19.3479H43.7909Z" fill="white"/>
<path d="M63.4619 19.3479H70.408V37.0912H63.4619V19.3479Z" fill="white"/>
<path d="M114.73 19.3447V37.0928H107.783V27.9969L98.886 37.0928H90.5558L81.6591 28.032V37.0928H74.7178V19.3447H81.6591L94.6953 32.8346L107.783 19.3447H114.73Z" fill="white"/>
<path d="M136.593 19.3447H128.866L116.948 37.0928H124.59L126.32 34.4041H139.236L140.98 37.0928H148.623L136.593 19.3447ZM128.994 30.2449L132.751 24.4092L136.537 30.2449H128.994Z" fill="white"/>
<path d="M179.745 37.0928H170.855L164.723 31.8096L158.627 37.0928H149.736L160.441 28.1374L150.013 19.3447H158.903L164.737 24.4667L170.571 19.3447H179.468L169.019 28.1517L179.745 37.0928Z" fill="white"/>
</g>
<defs>
<linearGradient id="paint0_linear_454_684" x1="196.379" y1="0.895752" x2="196.379" y2="49.1027" gradientUnits="userSpaceOnUse">
<stop stop-color="#FFC635"/>
<stop offset="1" stop-color="#997720"/>
</linearGradient>
<clipPath id="clip0_454_684">
<rect width="211" height="50" fill="white"/>
</clipPath>
</defs>
</svg>
