<svg width="135" height="32" viewBox="0 0 135 32" fill="none" xmlns="http://www.w3.org/2000/svg">
<g clip-path="url(#clip0_904_1004)">
<path d="M57.9473 27.8881L58.5697 25.0361H59.2864L60.1453 26.9797H59.7675L61.4312 25.0361H62.1877L61.5694 27.8881H60.7555L61.124 26.1602H61.2715L60.0388 27.6061H59.6518L58.9792 26.152L59.1307 26.1642L58.7571 27.8881H57.9473Z" fill="white"/>
<path d="M61.8193 27.8881L63.8177 25.0361H64.6859L65.4425 27.8881H64.561L64.0051 25.4193H64.3481L62.754 27.8881H61.8193ZM62.6916 27.3302L63.0479 26.7395H64.5651L64.6675 27.3302H62.6916Z" fill="white"/>
<path d="M65.1973 27.8881L66.9152 26.1765L66.8087 26.6414L65.8832 25.0361H66.822L67.4137 26.104L67.0308 26.108L68.0679 25.0361H69.06L67.4537 26.6496L67.4854 26.1929L68.4918 27.8881H67.5345L66.9162 26.759L67.3124 26.7671L66.2528 27.8881H65.1983H65.1973Z" fill="white"/>
<path d="M68.709 27.8881L69.3314 25.0361H70.2129L69.5894 27.8881H68.709Z" fill="white"/>
<path d="M70.2168 27.8881L70.8393 25.0361H71.5559L72.4148 26.9797H72.0371L73.7017 25.0361H74.4583L73.8399 27.8881H73.025L73.3946 26.1602H73.541L72.3084 27.6061H71.9214L71.2498 26.152L71.4013 26.1642L71.0276 27.8881H70.2178H70.2168Z" fill="white"/>
<path d="M75.9495 27.9453C75.6383 27.9453 75.3783 27.8901 75.1684 27.7808C74.9596 27.6704 74.8111 27.5161 74.7241 27.3179C74.6371 27.1197 74.6238 26.8877 74.6862 26.621L75.0282 25.0361H75.9096L75.5667 26.6047C75.5196 26.8325 75.539 27.0022 75.6271 27.1115C75.7141 27.2219 75.8574 27.276 76.056 27.276C76.2403 27.276 76.3867 27.2249 76.4962 27.1217C76.6068 27.0185 76.6877 26.8458 76.7409 26.6047L77.0839 25.0361H77.9521L77.5958 26.6537C77.5067 27.0798 77.3245 27.4017 77.0481 27.6194C76.7727 27.837 76.4062 27.9453 75.9485 27.9453H75.9495Z" fill="white"/>
<path d="M77.8984 27.8881L78.5209 25.0361H79.2375L80.0965 26.9797H79.7187L81.3823 25.0361H82.1389L81.5206 27.8881H80.7066L81.0752 26.1602H81.2226L79.99 27.6061H79.603L78.9304 26.152L79.0819 26.1642L78.7082 27.8881H77.8984Z" fill="white"/>
<path d="M83.4395 27.8881L84.062 25.0361H85.3795C85.786 25.0361 86.0982 25.1158 86.3163 25.2763C86.5344 25.4367 86.6439 25.6615 86.6439 25.9527C86.6439 26.1918 86.5804 26.4013 86.4545 26.5801C86.3286 26.759 86.1505 26.8979 85.9201 26.996C85.6898 27.0941 85.4174 27.1432 85.1031 27.1432H84.0927L84.5646 26.7845L84.3199 27.8891H83.4385L83.4395 27.8881ZM84.5431 26.8816L84.2268 26.5025H85.1441C85.3366 26.5025 85.487 26.4616 85.5935 26.3799C85.7 26.2981 85.7543 26.1786 85.7543 26.0212C85.7543 25.8986 85.7113 25.8097 85.6253 25.7545C85.5393 25.6993 85.4195 25.6707 85.2649 25.6707H84.4193L84.8912 25.2875L84.5442 26.8806L84.5431 26.8816Z" fill="white"/>
<path d="M86.6739 27.8881L87.2963 25.0361H88.6272C89.0245 25.0361 89.3336 25.1158 89.5527 25.2763C89.7728 25.4367 89.8824 25.6595 89.8824 25.9446C89.8824 26.1837 89.8189 26.3921 89.693 26.5699C89.5671 26.7477 89.3889 26.8857 89.1586 26.9838C88.9282 27.0819 88.6549 27.1309 88.3375 27.1309H87.3311L87.799 26.7845L87.5543 27.8891H86.6729L86.6739 27.8881ZM87.7775 26.8816L87.4663 26.5025H88.3826C88.575 26.5025 88.7245 26.4616 88.8299 26.3799C88.9354 26.2981 88.9886 26.1786 88.9886 26.0212C88.9886 25.8986 88.9456 25.8097 88.8617 25.7545C88.7777 25.6993 88.6559 25.6707 88.4993 25.6707H87.6536L88.1256 25.2875L87.7785 26.8806L87.7775 26.8816ZM88.6324 27.8881L87.9915 26.8489H88.9037L89.5538 27.8881H88.6324Z" fill="white"/>
<path d="M91.6496 27.9453C91.3291 27.9453 91.0537 27.8922 90.8244 27.7859C90.5951 27.6797 90.4159 27.5325 90.29 27.3435C90.1641 27.1544 90.1006 26.9368 90.1006 26.6895C90.1006 26.4422 90.1477 26.2102 90.2429 26.0028C90.3381 25.7954 90.4712 25.6145 90.6432 25.4612C90.8152 25.308 91.0199 25.1884 91.2574 25.1046C91.495 25.0208 91.7581 24.9779 92.0458 24.9779C92.3631 24.9779 92.6385 25.031 92.8709 25.1363C93.1033 25.2426 93.2825 25.3907 93.4074 25.5808C93.5323 25.7709 93.5947 25.9885 93.5947 26.2327C93.5947 26.4769 93.5476 26.7109 93.4545 26.9194C93.3613 27.1268 93.2272 27.3077 93.0542 27.461C92.8812 27.6143 92.6744 27.7338 92.4358 27.8176C92.1973 27.9014 91.9352 27.9443 91.6506 27.9443L91.6496 27.9453ZM91.7253 27.277C91.8789 27.277 92.0171 27.2515 92.1369 27.1994C92.2566 27.1483 92.3601 27.0757 92.446 26.9838C92.532 26.8918 92.5965 26.7845 92.6395 26.6639C92.6825 26.5434 92.704 26.4156 92.704 26.2828C92.704 26.1581 92.6754 26.0468 92.617 25.9507C92.5587 25.8546 92.4747 25.779 92.3652 25.7269C92.2556 25.6738 92.1236 25.6472 91.969 25.6472C91.8144 25.6472 91.6813 25.6728 91.5615 25.7249C91.4417 25.776 91.3383 25.8485 91.2523 25.9405C91.1663 26.0324 91.1008 26.1397 91.0568 26.2603C91.0117 26.3809 90.9892 26.5086 90.9892 26.6415C90.9892 26.7661 91.0179 26.8775 91.0762 26.9736C91.1346 27.0696 91.2175 27.1442 91.325 27.1973C91.4335 27.2505 91.5656 27.277 91.7233 27.277H91.7253Z" fill="white"/>
<path d="M94.347 27.8881L94.8281 25.6758H93.875L94.0173 25.0361H96.8081L96.6658 25.6758H95.7086L95.2284 27.8881H94.347Z" fill="white"/>
<path d="M97.52 27.2607H99.153L99.0148 27.8881H96.5137L97.1361 25.0361H99.5748L99.4376 25.6635H97.8712L97.52 27.2607ZM97.7023 26.1397H99.1489L99.0199 26.7385H97.5733L97.7023 26.1397Z" fill="white"/>
<path d="M101.209 27.9453C100.892 27.9453 100.614 27.8922 100.377 27.7859C100.139 27.6797 99.9571 27.5325 99.8291 27.3435C99.7012 27.1544 99.6377 26.9368 99.6377 26.6895C99.6377 26.4422 99.6848 26.2143 99.78 26.0049C99.8752 25.7954 100.008 25.6145 100.18 25.4612C100.352 25.308 100.557 25.1884 100.797 25.1046C101.035 25.0208 101.3 24.9779 101.591 24.9779C101.882 24.9779 102.134 25.0239 102.357 25.1159C102.579 25.2078 102.746 25.3417 102.855 25.5154L102.224 25.9803C102.149 25.872 102.055 25.7892 101.941 25.732C101.828 25.6748 101.691 25.6462 101.534 25.6462C101.376 25.6462 101.245 25.6707 101.122 25.7198C100.999 25.7688 100.893 25.8383 100.804 25.9272C100.715 26.0171 100.646 26.1224 100.599 26.2429C100.551 26.3635 100.527 26.4953 100.527 26.6364C100.527 26.7641 100.558 26.8765 100.618 26.9725C100.679 27.0686 100.767 27.1432 100.882 27.1963C100.996 27.2495 101.131 27.276 101.289 27.276C101.428 27.276 101.562 27.2495 101.691 27.1963C101.82 27.1432 101.94 27.0594 102.05 26.946L102.571 27.415C102.396 27.6081 102.194 27.744 101.966 27.8248C101.737 27.9055 101.486 27.9453 101.209 27.9453Z" fill="white"/>
<path d="M103.408 27.8881L103.889 25.6758H102.936L103.078 25.0361H105.869L105.726 25.6758H104.769L104.289 27.8881H103.408Z" fill="white"/>
<path d="M105.575 27.8881L106.198 25.0361H107.079L106.457 27.8881H105.575Z" fill="white"/>
<path d="M108.767 27.9453C108.446 27.9453 108.171 27.8922 107.941 27.7859C107.71 27.6797 107.532 27.5325 107.406 27.3435C107.28 27.1544 107.218 26.9368 107.218 26.6895C107.218 26.4422 107.265 26.2102 107.36 26.0028C107.454 25.7954 107.588 25.6145 107.76 25.4612C107.932 25.308 108.137 25.1884 108.375 25.1046C108.612 25.0208 108.874 24.9779 109.162 24.9779C109.479 24.9779 109.755 25.031 109.988 25.1363C110.22 25.2426 110.4 25.3907 110.525 25.5808C110.649 25.7709 110.712 25.9885 110.712 26.2327C110.712 26.4769 110.665 26.7109 110.572 26.9194C110.477 27.1268 110.344 27.3077 110.171 27.461C109.997 27.6143 109.792 27.7338 109.552 27.8176C109.313 27.9014 109.051 27.9443 108.767 27.9443V27.9453ZM108.843 27.277C108.996 27.277 109.133 27.2515 109.254 27.1994C109.374 27.1483 109.477 27.0757 109.563 26.9838C109.649 26.8918 109.714 26.7845 109.757 26.6639C109.8 26.5434 109.821 26.4156 109.821 26.2828C109.821 26.1581 109.793 26.0468 109.734 25.9507C109.677 25.8546 109.593 25.779 109.483 25.7269C109.373 25.6738 109.242 25.6472 109.087 25.6472C108.933 25.6472 108.801 25.6728 108.68 25.7249C108.56 25.776 108.457 25.8485 108.371 25.9405C108.285 26.0324 108.219 26.1397 108.174 26.2603C108.13 26.3809 108.107 26.5086 108.107 26.6415C108.107 26.7661 108.136 26.8775 108.194 26.9736C108.252 27.0696 108.335 27.1442 108.443 27.1973C108.552 27.2505 108.684 27.277 108.841 27.277H108.843Z" fill="white"/>
<path d="M110.849 27.8881L111.471 25.0361H112.197L113.456 26.9388L113.158 26.9347L113.568 25.0361H114.431L113.808 27.8881H113.084L111.828 25.9854L112.126 25.9895L111.713 27.8881H110.85H110.849Z" fill="white"/>
<path d="M134.3 0.573242L128.124 31.4257H117.698L122.31 8.42099H116.992L118.581 2.40949C123.234 2.40949 123.983 0.573242 124.052 0.573242C127.468 0.573242 130.885 0.573242 134.3 0.573242Z" fill="url(#paint0_linear_904_1004)"/>
<path d="M21.2443 19.0011C21.185 20.1251 20.7765 21.0652 20.0179 21.8224C19.2592 22.5796 18.1423 23.1478 16.667 23.5258C15.1918 23.9039 13.3275 24.094 11.0762 24.094C9.35729 24.094 7.81651 24.002 6.45387 23.8191C5.09123 23.6362 3.92924 23.3225 2.96894 22.879C2.00864 22.4355 1.27357 21.8296 0.764759 21.0601C0.25492 20.2917 0 19.321 0 18.1499C0 16.9789 0.25492 16 0.764759 15.2132C1.2746 14.4263 2.00967 13.7999 2.96894 13.3319C3.92924 12.865 5.0902 12.5308 6.45387 12.3295C7.81651 12.1282 9.35729 12.0281 11.0762 12.0281C13.3275 12.0281 15.1949 12.2324 16.6763 12.6402C18.1577 13.0489 19.2777 13.6487 20.0363 14.4417C20.7949 15.2346 21.2034 16.1982 21.2628 17.3335H16.6404C16.4981 16.9554 16.2371 16.6213 15.8583 16.3311C15.4784 16.0419 14.9102 15.814 14.1516 15.6485C13.393 15.4829 12.3672 15.4002 11.0762 15.4002C9.55898 15.4002 8.32635 15.4921 7.37834 15.675C6.43032 15.859 5.73723 16.1512 5.29803 16.5528C4.85986 16.9554 4.64077 17.4878 4.64077 18.1499C4.64077 18.7528 4.85986 19.2443 5.29803 19.6224C5.73621 20.0015 6.4293 20.2784 7.37834 20.4562C8.32635 20.634 9.55898 20.7219 11.0762 20.7219C12.3682 20.7219 13.3899 20.6453 14.1434 20.491C14.8959 20.3377 15.4621 20.1272 15.8409 19.8605C16.2197 19.5948 16.4807 19.3077 16.623 19.0001H21.2454L21.2443 19.0011Z" fill="white"/>
<path d="M28.0174 12.3826V20.3673H38.3821V23.7384H23.5732V12.3826H28.0174Z" fill="white"/>
<path d="M40.6035 12.3826H45.0477V23.7384H40.6035V12.3826Z" fill="white"/>
<path d="M73.4052 12.3806V23.7394H68.96V17.918L63.2678 23.7394H57.938L52.2458 17.9405V23.7394H47.8047V12.3806H52.2458L60.5865 21.0142L68.96 12.3806H73.4052Z" fill="white"/>
<path d="M87.3931 12.3806H82.4493L74.8242 23.7394H79.7138L80.8205 22.0186H89.0844L90.2003 23.7394H95.0898L87.3931 12.3806ZM82.5312 19.3567L84.935 15.6219L87.3573 19.3567H82.5312Z" fill="white"/>
<path d="M115.003 23.7394H109.315L105.391 20.3581L101.491 23.7394H95.8027L102.652 18.0079L95.9798 12.3806H101.668L105.401 15.6587L109.133 12.3806H114.825L108.14 18.0171L115.003 23.7394Z" fill="white"/>
</g>
<defs>
<linearGradient id="paint0_linear_904_1004" x1="125.646" y1="0.573242" x2="125.646" y2="31.4257" gradientUnits="userSpaceOnUse">
<stop stop-color="#14975A"/>
<stop offset="1" stop-color="#00301A"/>
</linearGradient>
<clipPath id="clip0_904_1004">
<rect width="135" height="32" fill="white"/>
</clipPath>
</defs>
</svg>
