<svg width="211" height="50" viewBox="0 0 211 50" fill="none" xmlns="http://www.w3.org/2000/svg">
<g clip-path="url(#clip0_454_584)">
<path d="M90.5703 43.5752L91.5432 39.119H92.6633L94.0058 42.1558H93.4153L96.0155 39.119H97.198L96.2315 43.5752H94.9594L95.5355 40.8753H95.7659L93.8394 43.1345H93.2345L92.1832 40.8625L92.4201 40.8817L91.836 43.5752H90.5703Z" fill="#1E293B"/>
<path d="M96.6221 43.5752L99.7455 39.119H101.102L102.285 43.5752H100.907L100.038 39.7178H100.574L98.083 43.5752H96.6221ZM97.9854 42.7034L98.5422 41.7806H100.914L101.074 42.7034H97.9854Z" fill="#1E293B"/>
<path d="M101.902 43.5752L104.587 40.9009L104.421 41.6273L102.974 39.119H104.442L105.367 40.7875L104.768 40.7939L106.389 39.119H107.94L105.429 41.6401L105.479 40.9264L107.052 43.5752H105.555L104.589 41.8109L105.208 41.8237L103.552 43.5752H101.904H101.902Z" fill="#1E293B"/>
<path d="M107.391 43.5752L108.363 39.119H109.741L108.767 43.5752H107.391Z" fill="#1E293B"/>
<path d="M109.748 43.5752L110.721 39.119H111.841L113.184 42.1558H112.593L115.195 39.119H116.377L115.411 43.5752H114.137L114.715 40.8753H114.944L113.017 43.1345H112.412L111.363 40.8625L111.599 40.8817L111.015 43.5752H109.75H109.748Z" fill="#1E293B"/>
<path d="M118.707 43.6646C118.221 43.6646 117.814 43.5784 117.486 43.4076C117.16 43.2351 116.928 42.994 116.792 42.6843C116.656 42.3745 116.635 42.0121 116.732 41.5954L117.267 39.119H118.645L118.109 41.5698C118.035 41.9259 118.065 42.1909 118.203 42.3618C118.339 42.5342 118.563 42.6188 118.873 42.6188C119.161 42.6188 119.39 42.539 119.561 42.3777C119.734 42.2165 119.861 41.9466 119.944 41.5698L120.48 39.119H121.837L121.28 41.6465C121.141 42.3123 120.856 42.8152 120.424 43.1553C119.993 43.4954 119.421 43.6646 118.705 43.6646H118.707Z" fill="#1E293B"/>
<path d="M121.754 43.5752L122.727 39.119H123.847L125.189 42.1558H124.599L127.199 39.119H128.382L127.415 43.5752H126.143L126.719 40.8753H126.949L125.023 43.1345H124.418L123.367 40.8625L123.604 40.8817L123.02 43.5752H121.754Z" fill="#1E293B"/>
<path d="M130.414 43.5752L131.387 39.119H133.446C134.081 39.119 134.569 39.2436 134.91 39.4942C135.251 39.7449 135.422 40.0962 135.422 40.5512C135.422 40.9248 135.323 41.2521 135.126 41.5315C134.929 41.8109 134.651 42.0281 134.291 42.1814C133.931 42.3346 133.505 42.4113 133.014 42.4113H131.435L132.172 41.8508L131.79 43.5768H130.412L130.414 43.5752ZM132.139 42.0025L131.644 41.4102H133.078C133.379 41.4102 133.614 41.3463 133.78 41.2186C133.947 41.0909 134.032 40.904 134.032 40.6582C134.032 40.4666 133.964 40.3277 133.83 40.2414C133.696 40.1552 133.508 40.1105 133.267 40.1105H131.945L132.683 39.5118L132.14 42.0009L132.139 42.0025Z" fill="#1E293B"/>
<path d="M135.469 43.5752L136.442 39.119H138.522C139.143 39.119 139.626 39.2436 139.969 39.4942C140.313 39.7449 140.484 40.093 140.484 40.5384C140.484 40.912 140.385 41.2377 140.188 41.5156C139.991 41.7934 139.713 42.0089 139.353 42.1622C138.993 42.3155 138.566 42.3921 138.07 42.3921H136.497L137.228 41.8508L136.845 43.5768H135.468L135.469 43.5752ZM137.194 42.0025L136.708 41.4102H138.14C138.441 41.4102 138.674 41.3463 138.839 41.2186C139.004 41.0909 139.087 40.904 139.087 40.6582C139.087 40.4666 139.02 40.3277 138.889 40.2414C138.758 40.1552 138.567 40.1105 138.322 40.1105H137.001L137.738 39.5118L137.196 42.0009L137.194 42.0025ZM138.53 43.5752L137.529 41.9514H138.954L139.971 43.5752H138.53Z" fill="#1E293B"/>
<path d="M143.246 43.6646C142.745 43.6646 142.315 43.5815 141.956 43.4155C141.598 43.2494 141.318 43.0195 141.121 42.7241C140.924 42.4288 140.825 42.0887 140.825 41.7023C140.825 41.3159 140.899 40.9535 141.048 40.6294C141.196 40.3053 141.404 40.0227 141.673 39.7832C141.942 39.5437 142.262 39.3569 142.633 39.2259C143.005 39.095 143.416 39.028 143.865 39.028C144.361 39.028 144.792 39.111 145.155 39.2754C145.518 39.4415 145.798 39.673 145.994 39.97C146.189 40.2669 146.286 40.607 146.286 40.9886C146.286 41.3702 146.213 41.7358 146.067 42.0615C145.922 42.3857 145.712 42.6683 145.442 42.9078C145.171 43.1473 144.848 43.3341 144.475 43.465C144.102 43.5959 143.693 43.663 143.248 43.663L143.246 43.6646ZM143.365 42.6204C143.605 42.6204 143.821 42.5804 144.008 42.499C144.195 42.4192 144.357 42.3058 144.491 42.1621C144.625 42.0184 144.726 41.8508 144.793 41.6624C144.861 41.474 144.894 41.2744 144.894 41.0668C144.894 40.8721 144.849 40.698 144.758 40.5479C144.667 40.3979 144.536 40.2797 144.365 40.1983C144.193 40.1153 143.987 40.0737 143.745 40.0737C143.504 40.0737 143.296 40.1137 143.109 40.1951C142.921 40.2749 142.76 40.3883 142.625 40.532C142.491 40.6757 142.389 40.8433 142.32 41.0317C142.249 41.2201 142.214 41.4197 142.214 41.6273C142.214 41.8221 142.259 41.9961 142.35 42.1462C142.441 42.2963 142.571 42.4128 142.739 42.4958C142.909 42.5789 143.115 42.6204 143.361 42.6204H143.365Z" fill="#1E293B"/>
<path d="M147.461 43.5752L148.213 40.1185H146.724L146.946 39.119H151.308L151.086 40.1185H149.589L148.839 43.5752H147.461Z" fill="#1E293B"/>
<path d="M152.422 42.5949H154.974L154.758 43.5752H150.849L151.822 39.119H155.633L155.419 40.0993H152.97L152.422 42.5949ZM152.706 40.8434H154.967L154.766 41.779H152.505L152.706 40.8434Z" fill="#1E293B"/>
<path d="M158.187 43.6646C157.691 43.6646 157.257 43.5815 156.886 43.4155C156.515 43.2494 156.23 43.0195 156.03 42.7241C155.83 42.4288 155.73 42.0887 155.73 41.7023C155.73 41.3159 155.804 40.9599 155.953 40.6326C156.102 40.3053 156.31 40.0227 156.579 39.7832C156.847 39.5437 157.167 39.3569 157.542 39.2259C157.915 39.095 158.329 39.028 158.784 39.028C159.238 39.028 159.632 39.0998 159.98 39.2435C160.328 39.3872 160.588 39.5964 160.76 39.8678L159.772 40.5942C159.656 40.425 159.508 40.2957 159.331 40.2063C159.153 40.1169 158.94 40.0721 158.694 40.0721C158.447 40.0721 158.243 40.1105 158.051 40.1871C157.859 40.2637 157.692 40.3723 157.553 40.5112C157.414 40.6517 157.307 40.8162 157.233 41.0046C157.158 41.193 157.121 41.3989 157.121 41.6193C157.121 41.8189 157.169 41.9945 157.263 42.1446C157.358 42.2947 157.495 42.4112 157.675 42.4942C157.854 42.5773 158.065 42.6188 158.311 42.6188C158.529 42.6188 158.739 42.5773 158.94 42.4942C159.142 42.4112 159.329 42.2803 159.5 42.1031L160.315 42.8359C160.041 43.1377 159.726 43.35 159.369 43.4762C159.012 43.6023 158.619 43.6646 158.187 43.6646Z" fill="#1E293B"/>
<path d="M161.623 43.5752L162.375 40.1185H160.886L161.108 39.119H165.47L165.248 40.1185H163.752L163.001 43.5752H161.623Z" fill="#1E293B"/>
<path d="M165.011 43.5752L165.984 39.119H167.361L166.388 43.5752H165.011Z" fill="#1E293B"/>
<path d="M169.999 43.6646C169.498 43.6646 169.068 43.5815 168.708 43.4155C168.348 43.2494 168.069 43.0195 167.873 42.7241C167.676 42.4288 167.578 42.0887 167.578 41.7023C167.578 41.3159 167.652 40.9535 167.801 40.6294C167.948 40.3053 168.157 40.0227 168.426 39.7832C168.695 39.5437 169.015 39.3569 169.386 39.2259C169.757 39.095 170.167 39.028 170.617 39.028C171.113 39.028 171.543 39.111 171.908 39.2754C172.271 39.4415 172.551 39.673 172.747 39.97C172.942 40.2669 173.039 40.607 173.039 40.9886C173.039 41.3702 172.966 41.7358 172.82 42.0615C172.673 42.3857 172.465 42.6683 172.194 42.9078C171.922 43.1473 171.601 43.3341 171.226 43.465C170.854 43.5959 170.444 43.663 169.999 43.663V43.6646ZM170.118 42.6204C170.358 42.6204 170.572 42.5804 170.761 42.499C170.948 42.4192 171.11 42.3058 171.244 42.1621C171.378 42.0184 171.479 41.8508 171.546 41.6624C171.614 41.474 171.647 41.2744 171.647 41.0668C171.647 40.8721 171.602 40.698 171.511 40.5479C171.422 40.3979 171.29 40.2797 171.119 40.1983C170.946 40.1153 170.742 40.0737 170.5 40.0737C170.258 40.0737 170.052 40.1137 169.863 40.1951C169.676 40.2749 169.514 40.3883 169.38 40.532C169.245 40.6757 169.143 40.8433 169.073 41.0317C169.004 41.2201 168.969 41.4197 168.969 41.6273C168.969 41.8221 169.013 41.9961 169.105 42.1462C169.194 42.2963 169.324 42.4128 169.493 42.4958C169.663 42.5789 169.869 42.6204 170.116 42.6204H170.118Z" fill="#1E293B"/>
<path d="M173.253 43.5752L174.226 39.119H175.36L177.328 42.0919L176.863 42.0856L177.503 39.119H178.852L177.879 43.5752H176.746L174.784 40.6023L175.25 40.6087L174.603 43.5752H173.255H173.253Z" fill="#1E293B"/>
<path d="M209.905 0.895752L200.252 49.1027H183.956L191.165 13.1579H182.854L185.337 3.76489C192.609 3.76489 193.779 0.895752 193.888 0.895752C199.228 0.895752 204.567 0.895752 209.905 0.895752Z" fill="url(#paint0_linear_454_584)"/>
<path d="M33.2041 29.6893C33.1113 31.4456 32.4729 32.9145 31.2872 34.0976C30.1015 35.2807 28.3558 36.1684 26.05 36.7592C23.7442 37.35 20.8304 37.6469 17.3117 37.6469C14.6251 37.6469 12.2169 37.5032 10.0872 37.2174C7.9574 36.9316 6.14127 36.4415 4.64035 35.7485C3.13944 35.0556 1.99055 34.1088 1.19529 32.9065C0.39843 31.7059 0 30.1891 0 28.3593C0 26.5296 0.39843 25 1.19529 23.7706C1.99215 22.5412 3.14104 21.5625 4.64035 20.8312C6.14127 20.1016 7.9558 19.5795 10.0872 19.265C12.2169 18.9504 14.6251 18.7939 17.3117 18.7939C20.8304 18.7939 23.749 19.1133 26.0644 19.7503C28.3798 20.389 30.1303 21.3262 31.316 22.5652C32.5017 23.8042 33.1401 25.3098 33.2329 27.0836H26.0084C25.786 26.4929 25.3779 25.9708 24.7859 25.5173C24.1922 25.0655 23.3042 24.7095 22.1185 24.4508C20.9328 24.1921 19.3295 24.0628 17.3117 24.0628C14.9403 24.0628 13.0138 24.2065 11.5321 24.4923C10.0504 24.7797 8.96708 25.2363 8.28063 25.8638C7.59578 26.4929 7.25335 27.3247 7.25335 28.3593C7.25335 29.3014 7.59578 30.0693 8.28063 30.6601C8.96548 31.2524 10.0488 31.6851 11.5321 31.9629C13.0138 32.2407 14.9403 32.3781 17.3117 32.3781C19.3311 32.3781 20.928 32.2583 22.1057 32.0172C23.2818 31.7777 24.1666 31.4488 24.7587 31.0321C25.3507 30.617 25.7588 30.1683 25.9812 29.6877H33.2057L33.2041 29.6893Z" fill="#1E293B"/>
<path d="M43.7909 19.348V31.8241H59.9905V37.0913H36.8447V19.348H43.7909Z" fill="#1E293B"/>
<path d="M63.4629 19.348H70.409V37.0913H63.4629V19.348Z" fill="#1E293B"/>
<path d="M114.73 19.3447V37.0928H107.783V27.9969L98.886 37.0928H90.5558L81.6591 28.032V37.0928H74.7178V19.3447H81.6591L94.6953 32.8346L107.783 19.3447H114.73Z" fill="#1E293B"/>
<path d="M136.593 19.3447H128.866L116.948 37.0928H124.59L126.32 34.4041H139.236L140.98 37.0928H148.623L136.593 19.3447ZM128.994 30.2449L132.751 24.4092L136.537 30.2449H128.994Z" fill="#1E293B"/>
<path d="M179.745 37.0928H170.855L164.723 31.8096L158.627 37.0928H149.736L160.441 28.1374L150.013 19.3447H158.903L164.737 24.4667L170.572 19.3447H179.468L169.019 28.1517L179.745 37.0928Z" fill="#1E293B"/>
</g>
<defs>
<linearGradient id="paint0_linear_454_584" x1="196.379" y1="0.895752" x2="196.379" y2="49.1027" gradientUnits="userSpaceOnUse">
<stop stop-color="#14985A"/>
<stop offset="1" stop-color="#07321E"/>
</linearGradient>
<clipPath id="clip0_454_584">
<rect width="211" height="50" fill="white"/>
</clipPath>
</defs>
</svg>
